<mxfile host="65bd71144e" modified="2021-03-04T15:32:05.973Z" agent="5.0 (Macintosh; Intel Mac OS X 10_15_7) AppleWebKit/537.36 (KHTML, like Gecko) Code/1.52.1 Chrome/83.0.4103.122 Electron/9.3.5 Safari/537.36" version="14.2.4" etag="X_HCtjgBmXc7-_JdHp4n" type="embed">
    <diagram id="EX7O7wGmSMzRYAoEkmwf" name="Page-1">
        <mxGraphModel dx="771" dy="585" grid="1" gridSize="10" guides="1" tooltips="1" connect="1" arrows="1" fold="1" page="1" pageScale="1" pageWidth="827" pageHeight="1169" math="0" shadow="0">
            <root>
                <mxCell id="0"/>
                <mxCell id="1" parent="0"/>
                <mxCell id="3" value="" style="rounded=0;whiteSpace=wrap;html=1;fillColor=#647687;strokeColor=#314354;fontColor=#ffffff;shadow=1;" vertex="1" parent="1">
                    <mxGeometry x="40" y="40" width="560" height="600" as="geometry"/>
                </mxCell>
                <mxCell id="4" value="Header" style="rounded=0;whiteSpace=wrap;html=1;shadow=1;" vertex="1" parent="1">
                    <mxGeometry x="60" y="50" width="520" height="70" as="geometry"/>
                </mxCell>
                <mxCell id="5" value="Leaderboard" style="rounded=0;whiteSpace=wrap;html=1;shadow=1;align=center;" vertex="1" parent="1">
                    <mxGeometry x="450" y="195" width="130" height="375" as="geometry"/>
                </mxCell>
                <mxCell id="6" value="" style="rounded=0;whiteSpace=wrap;html=1;shadow=1;" vertex="1" parent="1">
                    <mxGeometry x="60" y="195" width="380" height="370" as="geometry"/>
                </mxCell>
                <mxCell id="8" value="Randomise Teams" style="rounded=1;whiteSpace=wrap;html=1;shadow=1;fillColor=#275AC2;" vertex="1" parent="1">
                    <mxGeometry x="215" y="215" width="70" height="30" as="geometry"/>
                </mxCell>
                <mxCell id="9" value="Team 1" style="rounded=0;whiteSpace=wrap;html=1;shadow=1;fillColor=#275AC2;" vertex="1" parent="1">
                    <mxGeometry x="150" y="275" width="70" height="150" as="geometry"/>
                </mxCell>
                <mxCell id="10" value="Team 2" style="rounded=0;whiteSpace=wrap;html=1;shadow=1;fillColor=#275AC2;" vertex="1" parent="1">
                    <mxGeometry x="280" y="275" width="70" height="150" as="geometry"/>
                </mxCell>
                <mxCell id="11" value="Nav" style="rounded=0;whiteSpace=wrap;html=1;shadow=1;fillColor=#6a00ff;align=right;strokeColor=#3700CC;fontColor=#ffffff;" vertex="1" parent="1">
                    <mxGeometry x="60" y="130" width="520" height="50" as="geometry"/>
                </mxCell>
                <mxCell id="12" value="Team Randomiser" style="rounded=0;whiteSpace=wrap;html=1;shadow=1;fillColor=#275AC2;fontStyle=0" vertex="1" parent="1">
                    <mxGeometry x="80" y="140" width="70" height="30" as="geometry"/>
                </mxCell>
                <mxCell id="13" value="Previous Games" style="rounded=0;whiteSpace=wrap;html=1;shadow=1;fillColor=#275AC2;" vertex="1" parent="1">
                    <mxGeometry x="160" y="140" width="70" height="30" as="geometry"/>
                </mxCell>
                <mxCell id="14" value="Change Scores" style="rounded=0;whiteSpace=wrap;html=1;shadow=1;fillColor=#275AC2;" vertex="1" parent="1">
                    <mxGeometry x="240" y="140" width="70" height="30" as="geometry"/>
                </mxCell>
                <mxCell id="15" value="Player 1" style="rounded=0;whiteSpace=wrap;html=1;shadow=1;fillColor=#275AC2;" vertex="1" parent="1">
                    <mxGeometry x="160" y="290" width="50" height="20" as="geometry"/>
                </mxCell>
                <mxCell id="17" value="User Details" style="rounded=0;whiteSpace=wrap;html=1;shadow=1;fillColor=#275AC2;" vertex="1" parent="1">
                    <mxGeometry x="320" y="140" width="70" height="30" as="geometry"/>
                </mxCell>
                <mxCell id="20" value="Stats" style="rounded=0;whiteSpace=wrap;html=1;shadow=1;fillColor=#275AC2;" vertex="1" parent="1">
                    <mxGeometry x="400" y="140" width="70" height="30" as="geometry"/>
                </mxCell>
            </root>
        </mxGraphModel>
    </diagram>
</mxfile>